<svg width="12" height="10" viewBox="0 0 12 10" fill="none" xmlns="http://www.w3.org/2000/svg">
<path d="M3.40565 8.59207L0.428794 5.61436C0.292238 5.47792 0.183909 5.3159 0.109999 5.13758C0.0360891 4.95925 -0.00195312 4.76811 -0.00195312 4.57507C-0.00195313 4.38203 0.0360891 4.19089 0.109999 4.01256C0.183909 3.83424 0.292238 3.67222 0.428794 3.53578C0.70457 3.26041 1.07836 3.10575 1.46808 3.10575C1.8578 3.10575 2.23159 3.26041 2.50737 3.53578L4.37165 5.39836C4.40923 5.43573 4.46008 5.45671 4.51308 5.45671C4.56608 5.45671 4.61693 5.43573 4.65451 5.39836L9.48879 0.56407C9.76457 0.2887 10.1384 0.134033 10.5281 0.134033C10.9178 0.134033 11.2916 0.2887 11.5674 0.56407C11.7039 0.700509 11.8123 0.862522 11.8862 1.04085C11.9601 1.21918 11.9981 1.41032 11.9981 1.60336C11.9981 1.79639 11.9601 1.98754 11.8862 2.16586C11.8123 2.34419 11.7039 2.5062 11.5674 2.64264L5.61879 8.59207C5.32528 8.8855 4.92725 9.05034 4.51222 9.05034C4.0972 9.05034 3.69916 8.8855 3.40565 8.59207Z" fill="#5A5266"/>
</svg>
