<svg width="16" height="16" viewBox="0 0 16 16" fill="none" xmlns="http://www.w3.org/2000/svg">
<path fill-rule="evenodd" clip-rule="evenodd" d="M11.4713 1.54726L7.85704 5.15869L4.24275 1.54441C4.05233 1.3461 3.82424 1.18779 3.57185 1.07877C3.31946 0.969753 3.04785 0.912212 2.77293 0.909523C2.49802 0.906833 2.22533 0.95905 1.97085 1.06311C1.71638 1.16717 1.48524 1.32098 1.29097 1.51553C1.09671 1.71008 0.94324 1.94145 0.839553 2.19607C0.735865 2.4507 0.68405 2.72346 0.687142 2.99838C0.690235 3.27329 0.748174 3.54482 0.857564 3.79705C0.966953 4.04928 1.12559 4.27714 1.32418 4.46726L4.93704 8.08155L1.32704 11.6916C0.94962 12.0815 0.740557 12.6041 0.744921 13.1468C0.749285 13.6895 0.966727 14.2087 1.35037 14.5925C1.73401 14.9763 2.25312 15.194 2.79578 15.1987C3.33844 15.2033 3.86119 14.9945 4.25132 14.6173L7.85704 11.0001L11.4685 14.613C11.659 14.8109 11.8871 14.9689 12.1395 15.0776C12.3918 15.1863 12.6633 15.2437 12.938 15.2463C13.2127 15.2489 13.4853 15.1967 13.7396 15.0927C13.9939 14.9888 14.225 14.8352 14.4193 14.6409C14.6136 14.4466 14.7672 14.2156 14.8711 13.9612C14.975 13.7069 15.0272 13.4344 15.0246 13.1597C15.022 12.8849 14.9647 12.6134 14.8559 12.3611C14.7472 12.1088 14.5893 11.8807 14.3913 11.6901L10.7856 8.08298L14.3956 4.47298C14.773 4.08303 14.9821 3.56038 14.9777 3.01772C14.9734 2.47505 14.7559 1.95584 14.3723 1.57201C13.9886 1.18818 13.4695 0.970485 12.9269 0.965856C12.3842 0.961227 11.8615 1.17004 11.4713 1.54726Z" fill="#403B36"/>
</svg>
