<svg width="20" height="18" viewBox="0 0 20 18" fill="none" xmlns="http://www.w3.org/2000/svg">
<path d="M14.2786 0.727051H1.44429C1.06366 0.728524 0.698884 0.8796 0.428675 1.14767C0.158466 1.41574 0.00449714 1.77931 0 2.15991L0 2.74134C0.000756783 3.12389 0.153256 3.49052 0.42403 3.76075C0.694804 4.03099 1.06173 4.18277 1.44429 4.18277H14.2786C14.6611 4.18277 15.0281 4.03099 15.2988 3.76075C15.5696 3.49052 15.7221 3.12389 15.7229 2.74134V2.15848C15.718 1.77813 15.5639 1.41493 15.2937 1.14716C15.0235 0.879397 14.6589 0.728519 14.2786 0.727051Z" fill="#403B36"/>
<path d="M18.5571 7.27124H1.44429C1.06378 7.27308 0.69921 7.42428 0.42908 7.69227C0.15895 7.96026 0.00486431 8.32362 0 8.7041L0 9.28553C0.000378636 9.66833 0.152711 10.0353 0.423526 10.3059C0.694341 10.5764 1.06148 10.7284 1.44429 10.7284H18.5571C18.7466 10.7284 18.9342 10.6911 19.1093 10.6186C19.2844 10.546 19.4434 10.4398 19.5774 10.3058C19.7114 10.1718 19.8177 10.0127 19.8902 9.83768C19.9627 9.66263 20 9.475 20 9.28553V8.70267C19.9955 8.32245 19.8417 7.95924 19.5717 7.69144C19.3018 7.42364 18.9374 7.27271 18.5571 7.27124Z" fill="#403B36"/>
<path d="M9.28571 13.8171H1.44429C1.0644 13.8186 0.70025 13.9691 0.430161 14.2362C0.160071 14.5034 0.00561138 14.8659 0 15.2457L0 15.8257C0.000378636 16.2085 0.152711 16.5755 0.423526 16.8461C0.694341 17.1166 1.06148 17.2686 1.44429 17.2686H9.28571C9.66852 17.2686 10.0357 17.1166 10.3065 16.8461C10.5773 16.5755 10.7296 16.2085 10.73 15.8257V15.2443C10.724 14.8647 10.5694 14.5026 10.2993 14.2357C10.0293 13.9689 9.66536 13.8186 9.28571 13.8171Z" fill="#403B36"/>
</svg>
